<?xml version="1.0" encoding="utf-8"?>
<!-- Generator: Adobe Illustrator 24.1.2, SVG Export Plug-In . SVG Version: 6.00 Build 0)  -->
<svg version="1.1" id="Layer_1" xmlns="http://www.w3.org/2000/svg" xmlns:xlink="http://www.w3.org/1999/xlink" x="0px" y="0px"
	 viewBox="0 0 500 500" style="enable-background:new 0 0 500 500;" xml:space="preserve">
<style type="text/css">
	.st0{fill:#7BC14E;}
</style>
<g>
	<path class="st0" d="M353.93,328.41l129.2-143l-13.1-32.82l-48.11,52.36l-0.23-33.34l-31.53,31.55l0.33,37.13l-36.58,39.54
		l-0.28-56.27l102.68-112.8l-18.89-27.72l-27.4,30.67l-21.18-23.14l24.11-26.84l-24.82-20.41l-21.23,23.23L311.22,5.45h-42.73
		l16.23,18.94l-33.19,36.34l-18.21-20.14l31.32-35.14H221.9l-10.72,11.49L200.18,5l-32.86,10.69l60.52,67.56l-40.29,44.21
		l-28.92-32.71l34.11-36.35l-43.5,0.33l-11.62,12.7l-24.85-26.88L86.8,63.57l28.83,31.54l-21.36,23.35L61.94,83.7l-19.78,26.02
		l103.88,113.84v57.25l-34.03-37.49V209.3l-31.19-31.98v30.42l-50.94-55.35l-13.01,33.24l129.17,142.28v52.51H93.46l-0.14,16.45
		H405.5v-17.02h-51.57V328.41z M306.47,48.53l38.74,41.41l-33.63,36.36l-38.7-41.46L306.47,48.53z M116.12,142.53l21.09-23.65
		l67.69,73.26l0.16,98.73l-27.84-29.8v-49.95L116.12,142.53z M205.38,380.42h-28.15v-71.13l28.15,29.11V380.42z M236.48,380.21
		v-90.47l26.95-29.65l0.19,120.12H236.48z M263.83,212.33l-27.35,29.21l-0.44-61.89l-26.75-28.84l40.11-43.45l40.86,43.03
		l-27.03,29.26L263.83,212.33z M322.09,379.98h-27.24v-47.49l27.43-30.16L322.09,379.98z M322.29,254.62l-27.57,30.3v-92.17
		l71.99-79.02l21.76,23.5l-65.7,72.86L322.29,254.62z"/>
	<g>
		<polygon class="st0" points="95.37,451.97 95.34,425.75 114.14,425.75 114.14,430.76 102.01,430.79 102.01,436.16 113.13,436.13 
			113.13,441.28 102.01,441.28 102.01,447.47 114.22,447.44 114.24,451.97 		"/>
		<polygon class="st0" points="117.68,451.77 117.64,425.41 123.76,425.41 123.84,447.29 133.24,447.29 133.26,451.77 		"/>
		<path class="st0" d="M135.79,467.68c0-6.69-0.05-42.29-0.05-42.29l37.65-0.03c0,0,8.81-0.67,11.6,10.59c0,0,2.2,9.88-4.09,14.58
			c0,0,6.05,2.32,8.36,6.49c2.85,4.95,5.39,11.42,1.85,22.06c-3.16,9.25-12.86,13.61-16.45,14.56c-11.69,3.19-20.62-0.18-20.62-0.18
			S135.9,487.34,135.79,467.68 M164.45,484.2c11.38,0.81,18.02-8.09,17.22-16.56c-1.03-11-13.01-13.75-16.05-13.75l-16.9,0.22v17.3
			C151.11,485.62,164.45,484.2,164.45,484.2 M157.54,443.82c2.74,0,11.89,0.04,14.32-1.05c2.43-1.12,2.13-5.19-0.39-6.22
			c-2.45-1.09-22.75-0.55-22.75-0.55v18.12L157.54,443.82z"/>
		<path class="st0" d="M405.2,437.12l-0.04-11.76h-25.28v-0.13h-11.4v0.18h-0.62l0.06,26.71c0,11.91-8.37,12.53-11.36,12.56
			c-3.62,0-11.32-0.65-11.32-13.67l-0.01-25.78l-11.46,0.03v25.76c0.03,6.45,0.56,12.13,5.04,17.26c3.86,4.39,10.06,7.85,17.6,7.79
			c3.09,0,11.5-2.01,11.5-2.01l37.33-0.08l-0.03-11.18h-25.26v-7.68h24.69l-0.08-11.04h-24.61v-6.96H405.2z"/>
		<path class="st0" d="M327.77,465.85c3.99-4.7,5.24-8.73,5.24-14.92c0-14.6-11.95-25.52-25.98-25.52c-6.82,0-13.52,2.69-18.33,7.58
			c-4.88,4.82-7.2,11.02-7.2,18.01c0.08,14.29,11.94,25.21,25.92,25.14c4.63,0,9.26-0.58,13.08-3.02c3.7,2.55,10.82,3.28,15.36,3.02
			l-0.04-9.73C335.81,466.41,329.22,466.59,327.77,465.85 M307.41,466.41c-8.23,0-14.9-6.69-14.9-14.9
			c0-8.28,6.62-14.96,14.83-14.96c8.26,0,14.88,6.66,14.88,14.91C322.26,459.7,315.62,466.41,307.41,466.41"/>
		<path class="st0" d="M215.26,425.61c-13.93,0-25.18,11.32-25.18,25.28c0,13.98,11.25,25.33,25.18,25.33
			c13.93,0,25.21-11.35,25.21-25.33C240.48,436.93,229.19,425.61,215.26,425.61 M215.26,465.21c-7.82,0-14.2-6.43-14.2-14.33
			c0-7.9,6.38-14.25,14.2-14.25c7.88,0,14.25,6.35,14.25,14.25C229.51,458.78,223.14,465.21,215.26,465.21"/>
		<path class="st0" d="M263.49,446.17l-0.06-0.01c-2.66-0.53-9.49-2.75-9.96-6.41c-0.19-1.36,0.17-2.46,1-3.3
			c1.89-1.89,5.74-2.12,6.95-2.01c6.43,0.64,7.01,5.82,7.01,5.82l12.25-1.83l-0.07-0.66c-0.03-0.17-1.59-12.22-17.84-13.5
			c-9.99-0.8-21.26,3.2-22.51,13.89c-1.13,10.45,10.13,14.42,18.38,17.35c4.22,1.48,8.22,2.88,8.56,4.56c0.29,1.21,0,2.28-0.8,3.14
			c-1.67,1.81-5.22,2.28-6.36,2.14c-6.29-0.77-7.36-5.84-7.36-5.84l-12.36,2.01l0.16,0.66c0.01,0.1,1.97,12.05,18.23,13.37
			c10.5,0.82,21.61-3.69,22.46-13.94C281.65,454.93,275.71,449.75,263.49,446.17"/>
		<path class="st0" d="M103.16,415.81c-0.05,0.48-1.56,0.79-2.83,0.79c-2.88,0-4.64-1.52-4.32-5.04c0.29-3.5,3.37-5.42,6.14-5.42
			c0.94,0,2.28,0.21,2.23,0.66l-0.04,0.53c-0.01,0.12-0.13,0.21-0.26,0.21c-0.19,0-0.61-0.42-2.01-0.42c-2.44,0-4.41,2.01-4.62,4.44
			c-0.23,2.64,1,4.02,3.14,4.02c1.46,0,2.27-0.54,2.39-0.54c0.13,0,0.24,0.1,0.24,0.23L103.16,415.81z"/>
		<path class="st0" d="M106.06,412.83c-0.15,1.76,0.44,2.74,1.84,2.74c1.29,0,1.94-0.54,2.2-0.54c0.09,0,0.14,0.1,0.13,0.19
			l-0.04,0.59c-0.04,0.48-1.68,0.79-2.77,0.79c-1.77,0-2.96-0.97-2.73-3.56c0.28-3.37,2.46-5.2,4.53-5.2c1.58,0,2.09,0.73,2.03,1.6
			c-0.25,2.65-4.23,2.86-5.14,2.88L106.06,412.83z M106.31,411.42c0.56-0.05,3.41-0.15,3.54-1.77c0.06-0.57-0.2-0.93-0.81-0.93
			C107.25,408.72,106.44,410.82,106.31,411.42"/>
		<path class="st0" d="M113.14,408.3c0.02-0.22,0.15-0.29,0.38-0.29h0.7c0.31,0,0.3,0.11,0.27,0.29l-0.48,3.56l0.04,0.03
			c0.19-0.93,1.82-4.06,3.97-4.06c1.39,0,1.34,1.22,1.24,2.27l-0.83,6.02c0,0.21-0.13,0.32-0.34,0.32h-0.73
			c-0.32,0-0.32-0.15-0.28-0.32l0.79-5.86c0.08-0.65,0.1-1.15-0.42-1.15c-1.06,0-3.66,3.97-3.93,6.14l-0.09,0.87
			c-0.01,0.21-0.14,0.32-0.41,0.32h-0.68c-0.26,0-0.29-0.12-0.28-0.32L113.14,408.3z"/>
		<path class="st0" d="M125.24,415.92c-0.03,0.41-1.13,0.68-2.03,0.68c-1.24,0-2.07-0.58-1.93-2.19l0.73-5.45h-0.84
			c-0.26,0-0.25-0.14-0.25-0.3l0.03-0.36c0.04-0.22,0.14-0.29,0.36-0.29h0.81l0.27-2.02c0.02-0.23,0.15-0.33,0.43-0.33h0.66
			c0.28,0,0.29,0.13,0.28,0.33l-0.27,2.02h2.51c0.28,0,0.28,0.11,0.27,0.29l-0.04,0.36c-0.01,0.21-0.12,0.3-0.37,0.3h-2.51
			l-0.71,5.24c-0.07,0.82,0.09,1.37,0.88,1.37c1.14,0,1.38-0.38,1.65-0.38c0.09,0,0.11,0.11,0.1,0.18L125.24,415.92z"/>
		<path class="st0" d="M127.33,408.3c0.02-0.22,0.14-0.29,0.36-0.29h0.7c0.33,0,0.33,0.11,0.31,0.29l-0.47,3.3l0.04,0.02
			c0.26-0.87,1.12-3.78,3.28-3.78c0.55,0,0.84,0.14,0.82,0.48l-0.13,0.87c0,0.12-0.1,0.24-0.21,0.24c-0.25,0-0.42-0.31-0.94-0.31
			c-1.56,0-3.23,5.19-3.37,6.14l-0.11,0.87c-0.03,0.21-0.14,0.32-0.38,0.32h-0.73c-0.26,0-0.28-0.12-0.26-0.32L127.33,408.3z"/>
		<path class="st0" d="M131.82,412.83c0.25-3.05,2-4.99,4.14-4.99c2.09,0,2.92,1.63,2.74,3.77c-0.28,3.11-2.07,5-4.19,5
			C132.55,416.6,131.63,414.95,131.82,412.83 M134.76,415.56c1.35,0,2.35-1.46,2.57-3.79c0.13-1.57-0.18-2.9-1.57-2.9
			c-1.37,0-2.38,1.46-2.58,3.94C133.06,414.26,133.38,415.56,134.76,415.56"/>
		<path class="st0" d="M151.75,415.81c-0.03,0.48-1.54,0.79-2.81,0.79c-2.88,0-4.64-1.52-4.33-5.04c0.29-3.5,3.37-5.42,6.13-5.42
			c0.96,0,2.29,0.21,2.25,0.66l-0.05,0.53c0,0.12-0.13,0.21-0.27,0.21c-0.18,0-0.58-0.42-2.01-0.42c-2.43,0-4.4,2.01-4.61,4.44
			c-0.22,2.64,0.99,4.02,3.14,4.02c1.46,0,2.26-0.54,2.38-0.54c0.14,0,0.23,0.1,0.22,0.23L151.75,415.81z"/>
		<path class="st0" d="M153.28,412.83c0.28-3.05,2.01-4.99,4.17-4.99c2.07,0,2.89,1.63,2.72,3.77c-0.28,3.11-2.08,5-4.17,5
			C154.02,416.6,153.09,414.95,153.28,412.83 M156.24,415.56c1.34,0,2.35-1.46,2.55-3.79c0.16-1.57-0.16-2.9-1.54-2.9
			c-1.36,0-2.37,1.46-2.58,3.94C154.52,414.26,154.85,415.56,156.24,415.56"/>
		<path class="st0" d="M172.47,416.13c-0.01,0.21-0.14,0.32-0.34,0.32h-0.73c-0.33,0-0.32-0.15-0.3-0.32l0.82-5.86
			c0.03-0.62,0.09-1.15-0.36-1.15c-1.07,0-3.56,4.16-3.83,6.14l-0.13,0.87c-0.01,0.21-0.13,0.32-0.34,0.32h-0.74
			c-0.31,0-0.31-0.15-0.3-0.32l0.88-6.28c0.06-0.44-0.08-0.73-0.43-0.73c-1.22,0-3.65,4.43-3.79,6.16l-0.14,0.85
			c-0.02,0.22-0.13,0.32-0.41,0.32h-0.68c-0.28,0-0.29-0.12-0.28-0.32l1.09-7.83c0.01-0.22,0.15-0.29,0.37-0.29h0.69
			c0.34,0,0.32,0.11,0.3,0.29l-0.5,3.56l0.03,0.03c0.2-0.65,1.67-4.06,3.84-4.06c1.38,0,1.38,0.98,1.31,1.85l-0.33,2.17l0.04,0.03
			c0.23-0.65,1.7-4.06,3.89-4.06c1.41,0,1.36,1.12,1.21,2.27L172.47,416.13z"/>
		<path class="st0" d="M176.13,412.83c-0.15,1.76,0.44,2.74,1.83,2.74c1.31,0,1.95-0.54,2.19-0.54c0.08,0,0.16,0.1,0.15,0.19
			l-0.07,0.59c-0.03,0.48-1.68,0.79-2.75,0.79c-1.77,0-2.96-0.97-2.75-3.56c0.29-3.37,2.47-5.2,4.54-5.2c1.58,0,2.1,0.73,2.03,1.6
			c-0.24,2.65-4.23,2.86-5.14,2.88L176.13,412.83z M176.37,411.42c0.57-0.05,3.4-0.15,3.55-1.77c0.06-0.57-0.2-0.93-0.81-0.93
			C177.32,408.72,176.5,410.82,176.37,411.42"/>
		<path class="st0" d="M183.08,408.3c0.02-0.22,0.14-0.29,0.36-0.29h0.72c0.3,0,0.31,0.11,0.29,0.29l-0.47,3.3l0.03,0.02
			c0.27-0.87,1.15-3.78,3.29-3.78c0.55,0,0.85,0.14,0.82,0.48l-0.12,0.87c-0.02,0.12-0.1,0.24-0.21,0.24
			c-0.25,0-0.42-0.31-0.95-0.31c-1.58,0-3.22,5.19-3.36,6.14l-0.12,0.87c-0.02,0.21-0.13,0.32-0.37,0.32h-0.73
			c-0.29,0-0.29-0.12-0.27-0.32L183.08,408.3z"/>
		<path class="st0" d="M192.95,415.81c-0.04,0.42-1.59,0.79-2.69,0.79c-1.76,0-2.93-0.96-2.72-3.44c0.32-3.51,2.41-5.33,4.56-5.33
			c0.97,0,1.89,0.27,1.86,0.65l-0.06,0.58c0,0.08-0.08,0.15-0.19,0.15c-0.21,0-0.49-0.36-1.5-0.36c-1.97,0-3.06,1.7-3.28,4.14
			c-0.15,1.6,0.44,2.55,1.94,2.55c1.18,0,1.78-0.54,1.99-0.54c0.09,0,0.16,0.06,0.15,0.19L192.95,415.81z"/>
		<path class="st0" d="M195.64,408.3c0.02-0.22,0.14-0.29,0.4-0.29h0.67c0.28,0,0.31,0.11,0.3,0.29l-1.11,7.83
			c-0.01,0.21-0.12,0.32-0.38,0.32h-0.68c-0.3,0-0.3-0.14-0.3-0.32L195.64,408.3z M195.89,405.46c0.06-0.74,0.38-0.85,0.9-0.85
			c0.76,0,0.83,0.14,0.76,0.87c-0.07,0.78-0.39,0.83-0.98,0.83C195.88,406.31,195.81,406.17,195.89,405.46"/>
		<path class="st0" d="M203.96,412.58l-0.01-0.03c-0.21,0.57-1.79,4.06-3.97,4.06c-1.48,0-1.78-1.42-1.64-2.87
			c0.27-3.12,2.26-5.89,4.82-5.89c0.86,0,1.34,0.33,1.6,0.48c0.03-0.14,0.16-0.32,0.3-0.32h0.61c0.26,0,0.26,0.1,0.25,0.32
			l-1.05,7.81c-0.03,0.21-0.13,0.32-0.4,0.32h-0.72c-0.26,0-0.27-0.15-0.25-0.32L203.96,412.58z M200.34,415.48
			c1.76,0,4.07-5.38,4.29-6.4c-0.24-0.12-0.62-0.36-1.34-0.36c-1.92,0-3.34,2.17-3.59,4.93
			C199.61,414.55,199.67,415.48,200.34,415.48"/>
		<path class="st0" d="M208.97,404.88c0-0.17,0.15-0.27,0.37-0.27H210c0.21,0,0.35,0.1,0.31,0.27l-1.57,11.24
			c-0.02,0.21-0.14,0.32-0.39,0.32h-0.67c-0.29,0-0.29-0.12-0.29-0.32L208.97,404.88z"/>
	</g>
</g>
</svg>
